# xmcd
#
# Track frame offsets: 
#        150
#        14291
#        30400
#        42399
#        61214
#        74564
#        92023
#        105618
#        119658
#        136027
#        154326
#        170778
#        184973
#        199740
#
# Disc length: 2863 seconds
#
# Revision: 0
# Processed by: cddbd v1.5.2PL0 Copyright (c) Steve Scherf et al.
# Submitted via: ExactAudioCopyFreeDBPlugin 1.0
#
DISCID=c60b2d0e
DTITLE=Tom Astor - Take It Easy
DYEAR=2013
DGENRE=Country
TTITLE0=Take It Easy - Nimm's leicht
TTITLE1=Junger Adler '93
TTITLE2=Hallo. guten Morgen Deutschland
TTITLE3=Ich bion kein Dichter - kein Poet
TTITLE4=Hungrige Herzen
TTITLE5=mit einer starken Frau
TTITLE6=Ich bin wie ich bin
TTITLE7=Mit dem Truck durch Texas fahr'n
TTITLE8=Irgentwie wird's schon geh'n
TTITLE9=Verlorener Sohn
TTITLE10=Verrückt sein und sonst gar nichts
TTITLE11=Ich vermiss dich immer schon - bevor ich geh'
TTITLE12=Renovier' deine Seele
TTITLE13=Auf Wiedersehn, Goodbye
EXTD=
EXTT0=
EXTT1=
EXTT2=
EXTT3=
EXTT4=
EXTT5=
EXTT6=
EXTT7=
EXTT8=
EXTT9=
EXTT10=
EXTT11=
EXTT12=
EXTT13=
PLAYORDER=
